<svg width="184" height="19" viewBox="0 0 184 19" fill="none" xmlns="http://www.w3.org/2000/svg">
<path d="M11.366 1.0895H15.2884V17.95H11.366V11.2781H4.90988V17.95H0.987488V1.0895H4.90988V7.71328H11.366V1.0895ZM24.2782 5.20829C27.153 5.20829 30.9536 7.35198 30.9536 11.7357C30.9536 16.1435 27.153 18.1909 24.2782 18.1909C21.4034 18.1909 17.6028 16.1435 17.6028 11.7357C17.6028 7.35198 21.4034 5.20829 24.2782 5.20829ZM24.2782 8.55631C22.8165 8.55631 21.3303 9.66428 21.3303 11.7357C21.3303 13.7349 22.8165 14.8429 24.2782 14.8429C25.74 14.8429 27.2505 13.7349 27.2505 11.7357C27.2505 9.66428 25.74 8.55631 24.2782 8.55631ZM39.3344 5.20829C42.2092 5.20829 46.0097 7.35198 46.0097 11.7357C46.0097 16.1435 42.2092 18.1909 39.3344 18.1909C36.4596 18.1909 32.659 16.1435 32.659 11.7357C32.659 7.35198 36.4596 5.20829 39.3344 5.20829ZM39.3344 8.55631C37.8726 8.55631 36.3865 9.66428 36.3865 11.7357C36.3865 13.7349 37.8726 14.8429 39.3344 14.8429C40.7961 14.8429 42.3066 13.7349 42.3066 11.7357C42.3066 9.66428 40.7961 8.55631 39.3344 8.55631ZM56.8755 17.95L52.7582 13.0846L51.9542 13.9276V17.95H48.1049V13.3977V0.920898H51.9542V9.2789L55.5355 5.42507H60.1401L55.1214 10.6518L61.2608 17.95H56.8755ZM69.0081 9.37525C68.667 8.50814 68.1554 8.2191 67.5951 8.2191C67.0835 8.2191 66.5719 8.50814 66.5719 8.98987C66.5719 9.44751 66.8642 9.71246 67.4245 9.90515L69.0325 10.4591C70.8353 11.1095 72.6625 11.7598 72.6625 14.2648C72.6625 16.7939 70.1044 18.2391 67.4733 18.2391C65.1101 18.2391 62.8931 16.8661 62.3571 14.6743L65.3781 13.7349C65.6948 14.4334 66.2551 15.2283 67.4733 15.2283C68.3016 15.2283 68.8376 14.6984 68.8376 14.2166C68.8376 13.9758 68.6427 13.6626 68.0336 13.4218L66.5475 12.8919C64.0138 11.9766 62.82 10.7 62.82 8.9176C62.82 6.58122 65.0126 5.20829 67.4245 5.20829C69.8852 5.20829 71.5175 6.53305 72.2484 8.53222L69.0081 9.37525ZM93.249 1.0895V17.95H89.2048V9.8088L85.7209 17.95H82.3345L78.8994 9.85698V17.95H74.8552V1.0895H78.7288L84.0643 12.7955L89.3753 1.0895H93.249ZM105.065 5.42507H108.914V17.95H105.065V16.6975C104.894 17.1311 103.749 18.1909 101.8 18.1909C98.9011 18.1909 95.5635 16.1435 95.5635 11.6635C95.5635 7.35198 98.9011 5.20829 101.8 5.20829C103.749 5.20829 104.894 6.31627 105.065 6.58122V5.42507ZM102.361 14.8429C103.944 14.8429 105.235 13.759 105.235 11.6635C105.235 9.6402 103.944 8.55631 102.361 8.55631C100.704 8.55631 99.2909 9.66429 99.2909 11.6635C99.2909 13.7349 100.704 14.8429 102.361 14.8429ZM117.417 9.37525C117.076 8.50814 116.564 8.2191 116.004 8.2191C115.492 8.2191 114.981 8.50814 114.981 8.98987C114.981 9.44751 115.273 9.71246 115.833 9.90515L117.441 10.4591C119.244 11.1095 121.071 11.7598 121.071 14.2648C121.071 16.7939 118.513 18.2391 115.882 18.2391C113.519 18.2391 111.302 16.8661 110.766 14.6743L113.787 13.7349C114.103 14.4334 114.664 15.2283 115.882 15.2283C116.71 15.2283 117.246 14.6984 117.246 14.2166C117.246 13.9758 117.051 13.6626 116.442 13.4218L114.956 12.8919C112.422 11.9766 111.229 10.7 111.229 8.9176C111.229 6.58122 113.421 5.20829 115.833 5.20829C118.294 5.20829 119.926 6.53305 120.657 8.53222L117.417 9.37525ZM129.208 14.7706C129.89 14.7706 130.378 14.6743 130.914 14.5298V17.6851C130.378 17.9259 129.501 18.0945 128.209 18.0945C126.09 18.0945 124.311 17.396 124.311 13.5422V8.55631H122.533V5.42507H124.311V2.48652H128.161V5.42507H130.865V8.55631H128.161V13.5422C128.161 14.0962 128.307 14.7706 129.208 14.7706ZM139.246 5.20829C142.121 5.20829 146.14 7.35198 145.336 13.0123H136.493C136.931 14.313 138.076 14.9874 139.611 14.9874C141.17 14.9874 141.658 14.6502 142.535 14.2889L144.654 16.3121C143.534 17.396 142.023 18.1909 139.465 18.1909C136.322 18.1909 132.57 16.0472 132.57 11.7357C132.57 7.35198 136.371 5.20829 139.246 5.20829ZM139.246 8.45996C138.149 8.45996 137.029 9.08621 136.542 10.3387H141.926C141.536 9.08621 140.342 8.45996 139.246 8.45996ZM155.666 5.23238C156.007 5.23238 156.348 5.23238 156.665 5.30464V8.94169C156.373 8.86943 156.032 8.86943 155.788 8.86943C153.449 8.86943 151.573 10.5314 151.378 12.8437V17.95H147.529V5.42507H151.378V8.48405C151.963 6.6053 153.425 5.23238 155.666 5.23238ZM160.417 18.0705C159.248 18.0705 158.249 17.0829 158.249 15.9268C158.249 14.7465 159.248 13.759 160.417 13.759C161.611 13.759 162.61 14.7465 162.61 15.9268C162.61 17.0829 161.611 18.0705 160.417 18.0705ZM168.554 0.920898V4.1244H164.705V0.920898H168.554ZM168.554 5.42507V17.95H164.705V5.42507H168.554ZM177.325 5.20829C180.199 5.20829 184 7.35198 184 11.7357C184 16.1435 180.199 18.1909 177.325 18.1909C174.45 18.1909 170.649 16.1435 170.649 11.7357C170.649 7.35198 174.45 5.20829 177.325 5.20829ZM177.325 8.55631C175.863 8.55631 174.377 9.66428 174.377 11.7357C174.377 13.7349 175.863 14.8429 177.325 14.8429C178.786 14.8429 180.297 13.7349 180.297 11.7357C180.297 9.66428 178.786 8.55631 177.325 8.55631Z" fill="white"/>
</svg>
