<svg width="91" height="14" viewBox="0 0 91 14" fill="none" xmlns="http://www.w3.org/2000/svg">
<path d="M0.118608 0.818182H1.98295L5.22443 8.73295H5.34375L8.58523 0.818182H10.4496V11H8.98793V3.6321H8.89347L5.89062 10.9851H4.67756L1.67472 3.62713H1.58026V11H0.118608V0.818182ZM15.7804 11.1541C15.0645 11.1541 14.4397 10.9901 13.9061 10.6619C13.3725 10.3338 12.9582 9.87476 12.6632 9.2848C12.3682 8.69484 12.2207 8.00544 12.2207 7.21662C12.2207 6.42448 12.3682 5.73177 12.6632 5.13849C12.9582 4.54522 13.3725 4.08452 13.9061 3.75639C14.4397 3.42827 15.0645 3.2642 15.7804 3.2642C16.4963 3.2642 17.121 3.42827 17.6547 3.75639C18.1883 4.08452 18.6026 4.54522 18.8975 5.13849C19.1925 5.73177 19.34 6.42448 19.34 7.21662C19.34 8.00544 19.1925 8.69484 18.8975 9.2848C18.6026 9.87476 18.1883 10.3338 17.6547 10.6619C17.121 10.9901 16.4963 11.1541 15.7804 11.1541ZM15.7853 9.90625C16.2493 9.90625 16.6338 9.78362 16.9387 9.53835C17.2437 9.29309 17.469 8.96662 17.6149 8.55895C17.764 8.15128 17.8386 7.70218 17.8386 7.21165C17.8386 6.72443 17.764 6.27699 17.6149 5.86932C17.469 5.45833 17.2437 5.12855 16.9387 4.87997C16.6338 4.63139 16.2493 4.5071 15.7853 4.5071C15.318 4.5071 14.9302 4.63139 14.622 4.87997C14.3171 5.12855 14.09 5.45833 13.9409 5.86932C13.795 6.27699 13.7221 6.72443 13.7221 7.21165C13.7221 7.70218 13.795 8.15128 13.9409 8.55895C14.09 8.96662 14.3171 9.29309 14.622 9.53835C14.9302 9.78362 15.318 9.90625 15.7853 9.90625ZM26.7216 5.22798L25.3743 5.46662C25.3179 5.29427 25.2285 5.13021 25.1058 4.97443C24.9865 4.81865 24.8241 4.69105 24.6186 4.59162C24.4131 4.49219 24.1563 4.44247 23.848 4.44247C23.4271 4.44247 23.0758 4.53693 22.794 4.72585C22.5123 4.91146 22.3714 5.15175 22.3714 5.44673C22.3714 5.70194 22.4659 5.90743 22.6548 6.06321C22.8438 6.21899 23.1487 6.34659 23.5696 6.44602L24.7827 6.72443C25.4853 6.88684 26.009 7.13707 26.3537 7.47514C26.6984 7.81321 26.8707 8.25237 26.8707 8.79261C26.8707 9.25 26.7382 9.65767 26.473 10.0156C26.2112 10.3703 25.8449 10.6487 25.3743 10.8509C24.907 11.053 24.3651 11.1541 23.7486 11.1541C22.8935 11.1541 22.1958 10.9718 21.6555 10.6072C21.1153 10.2393 20.7839 9.71733 20.6612 9.04119L22.098 8.82244C22.1875 9.19697 22.3714 9.48035 22.6499 9.67259C22.9283 9.86151 23.2912 9.95597 23.7386 9.95597C24.2259 9.95597 24.6153 9.85488 24.907 9.6527C25.1986 9.44721 25.3445 9.19697 25.3445 8.90199C25.3445 8.66335 25.255 8.46283 25.076 8.30043C24.9003 8.13802 24.6302 8.01539 24.2656 7.93253L22.973 7.64915C22.2604 7.48674 21.7334 7.22822 21.392 6.87358C21.054 6.51894 20.8849 6.06984 20.8849 5.52628C20.8849 5.07552 21.0109 4.68111 21.2628 4.34304C21.5147 4.00497 21.8627 3.74148 22.3068 3.55256C22.7509 3.36032 23.2597 3.2642 23.8331 3.2642C24.6584 3.2642 25.308 3.44318 25.782 3.80114C26.2559 4.15578 26.5691 4.63139 26.7216 5.22798ZM32.0698 3.36364V4.55682H27.8986V3.36364H32.0698ZM29.0172 1.53409H30.5037V8.75781C30.5037 9.04616 30.5468 9.26326 30.633 9.40909C30.7192 9.55161 30.8302 9.64938 30.9661 9.70241C31.1053 9.75213 31.2561 9.77699 31.4185 9.77699C31.5378 9.77699 31.6422 9.7687 31.7317 9.75213C31.8212 9.73556 31.8908 9.7223 31.9405 9.71236L32.209 10.9403C32.1228 10.9735 32.0002 11.0066 31.8411 11.0398C31.682 11.0762 31.4831 11.0961 31.2445 11.0994C30.8534 11.1061 30.4888 11.0365 30.1507 10.8906C29.8127 10.7448 29.5392 10.5194 29.3304 10.2145C29.1216 9.90956 29.0172 9.52675 29.0172 9.06605V1.53409ZM37.4192 13.8636V3.36364H38.8709V4.60156H38.9952C39.0814 4.44247 39.2057 4.25852 39.3681 4.04972C39.5305 3.84091 39.7559 3.65862 40.0442 3.50284C40.3326 3.34375 40.7137 3.2642 41.1877 3.2642C41.8042 3.2642 42.3543 3.41998 42.8382 3.73153C43.3221 4.04309 43.7016 4.49219 43.9767 5.07884C44.2551 5.66548 44.3944 6.37145 44.3944 7.19673C44.3944 8.02202 44.2568 8.72964 43.9817 9.3196C43.7066 9.90625 43.3288 10.3587 42.8482 10.6768C42.3676 10.9917 41.8191 11.1491 41.2026 11.1491C40.7386 11.1491 40.3591 11.0713 40.0641 10.9155C39.7724 10.7597 39.5437 10.5774 39.378 10.3686C39.2123 10.1598 39.0847 9.9742 38.9952 9.81179H38.9057V13.8636H37.4192ZM38.8759 7.18182C38.8759 7.71875 38.9538 8.18939 39.1096 8.59375C39.2653 8.99811 39.4907 9.31463 39.7857 9.54332C40.0807 9.7687 40.4419 9.88139 40.8695 9.88139C41.3136 9.88139 41.6848 9.76373 41.9831 9.52841C42.2814 9.28977 42.5068 8.96662 42.6593 8.55895C42.815 8.15128 42.8929 7.69223 42.8929 7.18182C42.8929 6.67803 42.8167 6.22562 42.6642 5.82457C42.5151 5.42353 42.2897 5.10701 41.9881 4.875C41.6898 4.64299 41.3169 4.52699 40.8695 4.52699C40.4386 4.52699 40.074 4.63802 39.7757 4.86009C39.4808 5.08215 39.257 5.39205 39.1046 5.78977C38.9521 6.1875 38.8759 6.65151 38.8759 7.18182ZM49.2765 11.1541C48.5605 11.1541 47.9358 10.9901 47.4022 10.6619C46.8685 10.3338 46.4542 9.87476 46.1593 9.2848C45.8643 8.69484 45.7168 8.00544 45.7168 7.21662C45.7168 6.42448 45.8643 5.73177 46.1593 5.13849C46.4542 4.54522 46.8685 4.08452 47.4022 3.75639C47.9358 3.42827 48.5605 3.2642 49.2765 3.2642C49.9924 3.2642 50.6171 3.42827 51.1507 3.75639C51.6844 4.08452 52.0987 4.54522 52.3936 5.13849C52.6886 5.73177 52.8361 6.42448 52.8361 7.21662C52.8361 8.00544 52.6886 8.69484 52.3936 9.2848C52.0987 9.87476 51.6844 10.3338 51.1507 10.6619C50.6171 10.9901 49.9924 11.1541 49.2765 11.1541ZM49.2814 9.90625C49.7454 9.90625 50.1299 9.78362 50.4348 9.53835C50.7398 9.29309 50.9651 8.96662 51.111 8.55895C51.2601 8.15128 51.3347 7.70218 51.3347 7.21165C51.3347 6.72443 51.2601 6.27699 51.111 5.86932C50.9651 5.45833 50.7398 5.12855 50.4348 4.87997C50.1299 4.63139 49.7454 4.5071 49.2814 4.5071C48.8141 4.5071 48.4263 4.63139 48.1181 4.87997C47.8132 5.12855 47.5861 5.45833 47.437 5.86932C47.2911 6.27699 47.2182 6.72443 47.2182 7.21165C47.2182 7.70218 47.2911 8.15128 47.437 8.55895C47.5861 8.96662 47.8132 9.29309 48.1181 9.53835C48.4263 9.78362 48.8141 9.90625 49.2814 9.90625ZM54.4954 13.8636V3.36364H55.9471V4.60156H56.0714C56.1576 4.44247 56.2818 4.25852 56.4442 4.04972C56.6067 3.84091 56.832 3.65862 57.1204 3.50284C57.4087 3.34375 57.7899 3.2642 58.2638 3.2642C58.8803 3.2642 59.4305 3.41998 59.9144 3.73153C60.3983 4.04309 60.7778 4.49219 61.0529 5.07884C61.3313 5.66548 61.4705 6.37145 61.4705 7.19673C61.4705 8.02202 61.333 8.72964 61.0579 9.3196C60.7828 9.90625 60.4049 10.3587 59.9244 10.6768C59.4438 10.9917 58.8952 11.1491 58.2788 11.1491C57.8147 11.1491 57.4353 11.0713 57.1403 10.9155C56.8486 10.7597 56.6199 10.5774 56.4542 10.3686C56.2885 10.1598 56.1609 9.9742 56.0714 9.81179H55.9819V13.8636H54.4954ZM55.9521 7.18182C55.9521 7.71875 56.0299 8.18939 56.1857 8.59375C56.3415 8.99811 56.5669 9.31463 56.8619 9.54332C57.1568 9.7687 57.5181 9.88139 57.9457 9.88139C58.3898 9.88139 58.761 9.76373 59.0593 9.52841C59.3576 9.28977 59.583 8.96662 59.7354 8.55895C59.8912 8.15128 59.9691 7.69223 59.9691 7.18182C59.9691 6.67803 59.8929 6.22562 59.7404 5.82457C59.5913 5.42353 59.3659 5.10701 59.0643 4.875C58.766 4.64299 58.3931 4.52699 57.9457 4.52699C57.5148 4.52699 57.1502 4.63802 56.8519 4.86009C56.5569 5.08215 56.3332 5.39205 56.1808 5.78977C56.0283 6.1875 55.9521 6.65151 55.9521 7.18182ZM67.9734 7.8331V3.36364H69.4648V11H68.0032V9.67756H67.9237C67.748 10.0852 67.4663 10.425 67.0785 10.6967C66.694 10.9652 66.2151 11.0994 65.6417 11.0994C65.1512 11.0994 64.717 10.9917 64.3391 10.7763C63.9646 10.5575 63.6696 10.2344 63.4542 9.80682C63.2421 9.37926 63.136 8.85062 63.136 8.22088V3.36364H64.6225V8.0419C64.6225 8.56226 64.7667 8.97656 65.055 9.2848C65.3434 9.59304 65.7179 9.74716 66.1786 9.74716C66.457 9.74716 66.7338 9.67756 67.0089 9.53835C67.2873 9.39915 67.5176 9.18868 67.6999 8.90696C67.8855 8.62524 67.9767 8.26728 67.9734 7.8331ZM72.9487 0.818182V11H71.4622V0.818182H72.9487ZM77.1708 11.169C76.6869 11.169 76.2494 11.0795 75.8583 10.9006C75.4672 10.7183 75.1573 10.4548 74.9286 10.1101C74.7032 9.76539 74.5906 9.3428 74.5906 8.84233C74.5906 8.41146 74.6734 8.05682 74.8391 7.77841C75.0049 7.5 75.2286 7.27959 75.5103 7.11719C75.792 6.95478 76.1069 6.83215 76.4549 6.74929C76.8029 6.66643 77.1576 6.60346 77.5188 6.56037C77.9762 6.50734 78.3474 6.46425 78.6325 6.43111C78.9175 6.39465 79.1246 6.33665 79.2539 6.2571C79.3832 6.17756 79.4478 6.0483 79.4478 5.86932V5.83452C79.4478 5.40033 79.3252 5.06392 79.0799 4.82528C78.838 4.58665 78.4767 4.46733 77.9961 4.46733C77.4956 4.46733 77.1012 4.57836 76.8129 4.80043C76.5278 5.01918 76.3306 5.26278 76.2212 5.53125L74.8242 5.21307C74.9899 4.74905 75.2319 4.37453 75.5501 4.08949C75.8716 3.80114 76.2411 3.59233 76.6587 3.46307C77.0763 3.33049 77.5155 3.2642 77.9762 3.2642C78.2811 3.2642 78.6043 3.30066 78.9457 3.37358C79.2904 3.44318 79.6119 3.57244 79.9102 3.76136C80.2118 3.95028 80.4587 4.22041 80.6509 4.57173C80.8432 4.91974 80.9393 5.37216 80.9393 5.92898V11H79.4876V9.95597H79.4279C79.3318 10.1482 79.1876 10.3371 78.9954 10.5227C78.8031 10.7083 78.5562 10.8625 78.2546 10.9851C77.953 11.1077 77.5917 11.169 77.1708 11.169ZM77.494 9.97585C77.9049 9.97585 78.2563 9.89465 78.5479 9.73224C78.8429 9.56984 79.0666 9.35772 79.2191 9.09588C79.3749 8.83073 79.4528 8.54735 79.4528 8.24574V7.26136C79.3997 7.31439 79.297 7.36411 79.1445 7.41051C78.9954 7.4536 78.8247 7.49171 78.6325 7.52486C78.4402 7.55469 78.253 7.58286 78.0707 7.60938C77.8884 7.63258 77.7359 7.65246 77.6133 7.66903C77.3249 7.70549 77.0614 7.76681 76.8228 7.85298C76.5875 7.93916 76.3986 8.06345 76.256 8.22585C76.1168 8.38494 76.0472 8.59706 76.0472 8.86222C76.0472 9.23011 76.1831 9.50852 76.4549 9.69744C76.7267 9.88305 77.073 9.97585 77.494 9.97585ZM82.9192 11V3.36364H84.356V4.5767H84.4355C84.5748 4.16572 84.82 3.84257 85.1713 3.60724C85.526 3.36861 85.927 3.24929 86.3745 3.24929C86.4673 3.24929 86.5766 3.2526 86.7026 3.25923C86.8319 3.26586 86.9329 3.27415 87.0059 3.28409V4.70597C86.9462 4.68939 86.8401 4.67116 86.6877 4.65128C86.5352 4.62808 86.3828 4.61648 86.2303 4.61648C85.879 4.61648 85.5658 4.69105 85.2907 4.8402C85.0189 4.98603 84.8034 5.18987 84.6444 5.4517C84.4853 5.71023 84.4057 6.00521 84.4057 6.33665V11H82.9192ZM90.1665 0.818182L90.0373 8.07173H88.6602L88.5309 0.818182H90.1665ZM89.3512 11.0945C89.0761 11.0945 88.8408 10.9983 88.6452 10.8061C88.4497 10.6106 88.3536 10.3752 88.3569 10.1001C88.3536 9.82836 88.4497 9.59635 88.6452 9.40412C88.8408 9.20857 89.0761 9.1108 89.3512 9.1108C89.6197 9.1108 89.8517 9.20857 90.0472 9.40412C90.2428 9.59635 90.3422 9.82836 90.3455 10.1001C90.3422 10.2824 90.2942 10.4498 90.2013 10.6023C90.1119 10.7514 89.9925 10.8707 89.8434 10.9602C89.6942 11.0497 89.5302 11.0945 89.3512 11.0945Z" fill="#191919"/>
</svg>
