<svg width="89" height="89" viewBox="0 0 89 89" fill="none" xmlns="http://www.w3.org/2000/svg">
<path d="M88.4462 44.7039C88.4513 51.5558 86.8508 58.3135 83.7728 64.4352C80.6949 70.5568 76.2253 75.872 70.7224 79.9545C70.3545 80.2298 69.9795 80.498 69.6021 80.7591C62.2434 85.8743 53.4961 88.6158 44.5343 88.6158C35.5725 88.6158 26.8251 85.8743 19.4665 80.7591C19.0891 80.498 18.7141 80.2298 18.3462 79.9545C12.8471 75.8684 8.38024 70.5525 5.30272 64.4317C2.2252 58.3108 0.622375 51.5549 0.622375 44.7039C0.622375 37.8529 2.2252 31.097 5.30272 24.9761C8.38024 18.8553 12.8471 13.5394 18.3462 9.45332C18.7141 9.17798 19.0891 8.90976 19.4665 8.64866C26.8251 3.53356 35.5725 0.791992 44.5343 0.791992C53.4961 0.791992 62.2434 3.53356 69.6021 8.64866C69.9795 8.90976 70.3545 9.17798 70.7224 9.45332C76.2253 13.5358 80.6949 18.851 83.7728 24.9726C86.8508 31.0943 88.4513 37.852 88.4462 44.7039Z" fill="#485AFF"/>
</svg>
